<svg width="947" height="1024" viewBox="0 0 947 1024" fill="none" xmlns="http://www.w3.org/2000/svg">
<path fill-rule="evenodd" clip-rule="evenodd" d="M963.402 698.721C955.28 671.031 846.393 627.837 669.374 592.862C832.901 595.777 929.412 550.013 952.568 497.039C961.555 476.481 958.282 455.513 943.597 439.505C904.089 396.442 792.058 390.563 628.133 463.503C803.181 338.864 861.167 212.841 854.014 155.17C851.341 133.606 840.139 119.539 822.476 115.558C770.916 103.996 673.634 176.975 559.981 360.259C632.103 178.474 609.728 61.1794 557.382 8.67668C516.882 -31.9637 458.764 -33.6482 412.761 4.4874C350.088 56.4432 312.045 177.954 371.308 371.306C260.819 170.139 159.16 181.225 127.789 190.899C73.1782 207.766 39.3064 267.712 45.4283 336.666C52.6802 418.395 116.847 509.498 270.557 546.95C99.2233 547.639 19.2506 595.422 3.19414 641.646C-4.66212 664.283 2.13288 687.105 21.8251 704.261C64.3835 741.308 174.7 755.025 322.766 665.491C199.242 789.611 175.963 912.495 194.211 971.981C203.3 1001.61 222.241 1017.87 246.276 1016.67C276.773 1015.09 310.772 985.304 342.02 932.785C363.634 896.465 383.773 849.469 401.76 793.811C376.782 952.834 386.785 1027.42 408.128 1043.31C411.444 1045.77 415.061 1047 418.834 1047C423.806 1047 429.058 1044.87 434.276 1040.65C468.91 1012.62 510.569 880.359 490.14 713.777C546.892 877.848 629.405 993.387 661.518 998.298C666.854 999.091 671.291 997.002 673.85 992.326C685.735 970.696 651.77 887.709 582.911 766.521C622.419 816.524 661.71 857.099 699.257 886.418C751.735 927.403 799.737 945.052 830.897 934.874C849.901 928.661 861.251 912.101 862.037 889.437C863.364 851.258 836.356 801.26 787.936 752.268C752.246 716.156 706.116 681.641 651.643 650.058C734.17 680.225 794.618 696.807 834.749 705.869C867.176 713.187 944.343 728.341 960.591 711.081C963.706 707.767 964.733 703.266 963.402 698.721Z" fill="#CDF564"/>
</svg>
